<?xml version="1.0" encoding="UTF-8" standalone="no"?>
<svg width="102px" height="102px" viewBox="0 0 102 102" version="1.1" xmlns="http://www.w3.org/2000/svg" xmlns:xlink="http://www.w3.org/1999/xlink">
    <!-- Generator: Sketch 39.1 (31720) - http://www.bohemiancoding.com/sketch -->
    <title>SimpliBuzz_BeeOnly</title>
    <desc>Created with Sketch.</desc>
    <defs></defs>
    <g id="Page-1" stroke="none" stroke-width="1" fill="none" fill-rule="evenodd">
        <g id="SimpliBuzz_Mark_CMYK" transform="translate(2.000000, 6.000000)">
            <polyline id="Fill-4" fill="#D66929" points="72.7703704 3.382 97.0296296 45.4493333 72.7703704 87.5129583 24.2555556 87.5129583 0 45.4493333 24.2555556 3.382 72.7703704 3.382"></polyline>
            <path d="M41.5481481,51.7052917 C43.9037037,51.976 46.2037037,52.1502917 48.362963,52.1502917 C50.9222222,52.1502917 53.2777778,51.964875 55.4814815,51.7052917 C54.1259259,50.674375 52.8777778,49.5767083 51.7925926,48.404875 C49.7296296,48.5309583 47.5333333,48.5457917 45.2222222,48.4234167 C44.137037,49.5915417 42.8962963,50.6817917 41.5481481,51.7052917" id="Fill-6" fill="#FFFFFF"></path>
            <path d="M37.3592593,55.20225 C37.5222222,56.5298333 37.7777778,57.7906667 38.0888889,59.0032917 C41.7037037,59.6448333 45.1592593,59.9118333 48.362963,59.9118333 C52.3222222,59.9118333 55.8481481,59.507625 58.8962963,58.973625 C59.2037037,57.761 59.4555556,56.503875 59.6185185,55.1762917 C54.0148148,56.2776667 46.1407407,56.9562917 37.3592593,55.20225" id="Fill-7" fill="#FFFFFF"></path>
            <path d="M39.6111111,63.379125 C40.3074074,64.8884167 41.1296296,66.19375 42.0518519,67.295125 C44.2296296,67.5250417 46.3592593,67.673375 48.362963,67.673375 C50.7111111,67.673375 52.8777778,67.5102083 54.9259259,67.2877083 C55.8555556,66.1752083 56.6851852,64.85875 57.3851852,63.3309167 C52.5333333,64.091125 46.3962963,64.4397083 39.6111111,63.379125" id="Fill-8" fill="#FFFFFF"></path>
            <path d="M67.8074074,36.9757917 C64.0592593,34.565375 59.9259259,33.1784583 56.4703704,33.1784583 C55.7333333,33.1784583 55.1888889,33.3824167 54.5666667,33.5047917 C52.9703704,33.8237083 51.6296296,34.3910833 50.9592593,35.4368333 C49.9333333,37.035125 50.1259259,39.3750833 51.5037037,42.0265417 C52.5925926,44.110625 54.3148148,46.1390833 56.4407407,47.9524583 C57.3481481,48.7237917 58.3074074,49.4691667 59.3555556,50.1440833 C59.5259259,50.2553333 59.7074074,50.3332083 59.8814815,50.44075 C60.1481481,50.6002083 60.4185185,50.741125 60.6851852,50.8931667 C62.6777778,52.0019583 64.7444444,52.8252083 66.7222222,53.2961667 C67.3666667,53.4519167 67.9888889,53.5483333 68.6074074,53.633625 C72.0851852,54.1082917 75.0259259,53.51125 76.2,51.6830417 C78.4925926,48.1193333 74.6481481,41.385 67.8074074,36.9757917" id="Fill-9" fill="#FFFFFF"></path>
            <path d="M40.5481481,47.9858333 C42.6962963,46.1650417 44.4296296,44.1254583 45.5259259,42.0265417 C46.9,39.3750833 47.0962963,37.035125 46.0703704,35.4368333 C45.3925926,34.3799583 44.037037,33.8125833 42.4222222,33.497375 C41.8074074,33.3824167 41.2777778,33.1784583 40.5555556,33.1784583 C37.1,33.1784583 32.9703704,34.565375 29.2222222,36.9757917 C22.3814815,41.385 18.5333333,48.1193333 20.8259259,51.6830417 C21.9888889,53.4964167 24.8851852,54.1045833 28.3185185,53.6521667 C28.9888889,53.566875 29.662963,53.455625 30.362963,53.2850417 C32.3407407,52.8066667 34.4,51.9834167 36.3888889,50.8672083 C36.6222222,50.7337083 36.8592593,50.6113333 37.0925926,50.4704167 C37.2851852,50.3554583 37.4851852,50.2664583 37.6740741,50.1440833 C38.7074074,49.4765833 39.6518519,48.7460417 40.5481481,47.9858333" id="Fill-10" fill="#FFFFFF"></path>
            <path d="M55.1925926,26.14375 C57.7111111,25.0683333 59.1888889,23.1103333 58.7777778,22.1424583 C58.5555556,21.6195833 57.6814815,21.282125 56.562963,21.282125 C55.5851852,21.282125 54.4666667,21.5305833 53.4111111,21.9867083 C50.8925926,23.0658333 49.4185185,25.0238333 49.8259259,25.9842917 C50.2444444,26.967 52.9,27.1153333 55.1925926,26.14375" id="Fill-11" fill="#FFFFFF"></path>
            <path d="M41.837037,26.14375 C42.9074074,26.6035833 43.9925926,26.844625 44.9814815,26.844625 C46.1074074,26.844625 46.9777778,26.5071667 47.2,25.9842917 C47.6111111,25.0238333 46.137037,23.0658333 43.6148148,21.9867083 C42.562963,21.5305833 41.4444444,21.282125 40.4666667,21.282125 C39.3444444,21.282125 38.4740741,21.6195833 38.2518519,22.1461667 C37.8407407,23.1103333 39.3185185,25.0683333 41.837037,26.14375" id="Fill-12" fill="#FFFFFF"></path>
            <path d="M45.2148148,30.4973333 C45.2148148,30.54925 45.1851852,30.5974583 45.1851852,30.649375 C45.1851852,31.061 45.2814815,31.4466667 45.4185185,31.8100833 C45.5814815,32.251375 45.8185185,32.651875 46.137037,32.9819167 C46.2,33.0264167 46.2592593,33.0783333 46.3185185,33.13025 C46.737037,33.5047917 47.2555556,33.7384167 47.8259259,33.8682083 C48.062963,33.920125 48.2888889,34.0128333 48.5407407,34.0128333 C48.7777778,34.0128333 48.9851852,33.9238333 49.2074074,33.875625 C49.737037,33.764375 50.2148148,33.553 50.6185185,33.2266667 C50.737037,33.1265417 50.8518519,33.0264167 50.9777778,32.9337083 C51.2666667,32.6259167 51.4962963,32.2662083 51.6518519,31.8657083 C51.8,31.4874583 51.8962963,31.08325 51.8962963,30.649375 C51.8962963,30.5900417 51.8666667,30.538125 51.862963,30.4787917 C51.837037,30.0078333 51.7185185,29.57025 51.5185185,29.16975 C51.1703704,28.4725833 50.6111111,27.9052083 49.9,27.59 C49.8333333,27.556625 49.7407407,27.556625 49.6777778,27.5195417 C49.4703704,27.445375 49.2444444,27.4194167 49.0222222,27.3860417 C48.8592593,27.3637917 48.7111111,27.289625 48.5407407,27.289625 C48.3555556,27.289625 48.1925926,27.3675 48.0148148,27.3971667 C47.7592593,27.4379583 47.4925926,27.4527917 47.2555556,27.5492083 C47.2481481,27.5529167 47.237037,27.5529167 47.2296296,27.556625 C46.5,27.868125 45.9296296,28.4503333 45.5740741,29.1549167 C45.3666667,29.5665417 45.2407407,30.0115417 45.2148148,30.4973333" id="Fill-13" fill="#FFFFFF"></path>
        </g>
    </g>
</svg>