<?xml version="1.0" encoding="utf-8"?>
<svg width="472px" height="118px" viewbox="0 0 472 118" version="1.1" xmlns:xlink="http://www.w3.org/1999/xlink" xmlns="http://www.w3.org/2000/svg">
  <defs>
    <rect width="471.1" height="117.8" id="slice_1" />
    <clipPath id="clip_1">
      <use xlink:href="#slice_1" clip-rule="evenodd" />
    </clipPath>
  </defs>
  <g id="Slice" clip-path="url(#clip_1)">
    <use xlink:href="#slice_1" stroke="none" fill="none" />
    <g id="SimpliBuzz_Logo_CMYK" transform="translate(0 0.03713703)">
      <g id="Bee">
        <path d="M93.606 0L124.811 55.8051L93.606 111.6L31.2004 111.6L0 55.8051L31.2004 0L93.606 0" id="Fill-4" fill="#D6692A" fill-rule="evenodd" stroke="none" />
        <path d="M0 4.37784C3.03 4.73692 5.98854 4.96811 8.76604 4.96811C12.0581 4.96811 15.0881 4.72216 17.9227 4.37784C16.1791 3.01038 14.5735 1.55438 13.1776 0C10.524 0.162324 7.69887 0.186919 4.72604 0.0245946C3.33014 1.57405 1.73415 3.02022 0 4.37784" transform="translate(53.444244 59.72551)" id="Fill-6" fill="#FFFFFE" fill-rule="evenodd" stroke="none" />
        <path d="M0 0.0344324C0.209623 1.79541 0.538349 3.46784 0.938538 5.07632C5.58835 5.9273 10.0333 6.28146 14.1543 6.28146C19.2472 6.28146 23.7826 5.7453 27.7035 5.03697C28.099 3.42849 28.4229 1.76097 28.6325 0C21.4244 1.46092 11.2958 2.36108 0 0.0344324" transform="translate(48.055992 68.70746)" id="Fill-7" fill="#FFFFFE" fill-rule="evenodd" stroke="none" />
        <path d="M0 0.059027C0.89566 2.06595 1.95807 3.79741 3.13958 5.25832C5.9409 5.5633 8.68028 5.76005 11.2577 5.76005C14.2782 5.76005 17.0652 5.54362 19.6998 5.24849C20.8956 3.77281 21.9627 2.02659 22.8632 0C16.6221 1.00838 8.72793 1.47076 0 0.059027" transform="translate(50.95259 79.52416)" id="Fill-8" fill="#FFFFFE" fill-rule="evenodd" stroke="none" />
        <path d="M22.5087 5.03697C17.6873 1.83968 12.3706 0 7.9256 0C6.97753 0 6.2772 0.270541 5.47683 0.432865C3.42348 0.850973 1.69886 1.60849 0.836544 2.99562C-0.483126 5.11568 -0.23539 8.21951 1.53687 11.7365C2.93753 14.501 5.15286 17.1916 7.88749 19.597C9.0547 20.6201 10.2886 21.6088 11.6369 22.5041C11.856 22.6467 12.0895 22.7549 12.3134 22.8926C12.6564 23.1091 13.0042 23.296 13.3472 23.4928C15.9103 24.9684 18.5687 26.0604 21.1128 26.6851C21.9417 26.8917 22.7421 27.0196 23.5377 27.1328C28.0113 27.7624 31.794 26.9704 33.3042 24.5454C36.2532 19.8183 31.3081 10.8856 22.5087 5.03697" transform="translate(64.71341 39.528427)" id="Fill-9" fill="#FFFFFE" fill-rule="evenodd" stroke="none" />
        <path d="M26.2233 19.6412C28.9865 17.2261 31.2161 14.5206 32.6263 11.7365C34.3938 8.21951 34.6463 5.11568 33.3266 2.99562C32.4548 1.59373 30.7111 0.841135 28.6339 0.423027C27.8431 0.270541 27.1618 0 26.2328 0C21.7879 0 16.4758 1.83968 11.6545 5.03697C2.85512 10.8856 -2.09483 19.8183 0.854176 24.5454C2.35012 26.9508 6.07569 27.7575 10.4921 27.1574C11.3544 27.0442 12.2214 26.8917 13.1219 26.6704C15.6659 26.0358 18.3148 24.9438 20.8731 23.4632C21.1733 23.2862 21.4782 23.1238 21.7783 22.9369C22.0261 22.7844 22.2833 22.6664 22.5263 22.5041C23.8555 21.6187 25.0704 20.6496 26.2233 19.6412" transform="translate(25.934647 39.528427)" id="Fill-10" fill="#FFFFFE" fill-rule="evenodd" stroke="none" />
        <path d="M6.98978 6.4487C10.2294 5.02222 12.1303 2.42503 11.6015 1.14119C11.3156 0.447622 10.1913 0 8.75252 0C7.49478 0 6.05601 0.329568 4.69822 0.934595C1.4586 2.366 -0.437531 4.96319 0.0865259 6.23719C0.624875 7.5407 4.04077 7.73746 6.98978 6.4487" transform="translate(64.0056 23.748535)" id="Fill-11" fill="#FFFFFE" fill-rule="evenodd" stroke="none" />
        <path d="M4.69948 6.4487C6.07632 7.05865 7.47222 7.37838 8.74424 7.37838C10.1925 7.37838 11.3121 6.93076 11.598 6.23719C12.1268 4.96319 10.2307 2.366 6.98627 0.934595C5.63325 0.329568 4.19448 0 2.93674 0C1.49797 0 0.373632 0.447622 0.0877824 1.14611C-0.441038 2.42503 1.45986 5.02222 4.69948 6.4487" transform="translate(49.116364 23.748535)" id="Fill-12" fill="#FFFFFE" fill-rule="evenodd" stroke="none" />
        <path d="M0.0381132 4.25486C0.0381132 4.32373 0 4.38768 0 4.45654C0 5.00254 0.123868 5.51411 0.300142 5.99616C0.509764 6.58151 0.81467 7.11276 1.22439 7.55054C1.30538 7.60957 1.3816 7.67843 1.45783 7.74238C1.99618 8.24411 2.66316 8.554 3.39684 8.72124C3.70175 8.79503 3.99236 8.91308 4.31632 8.91308C4.62123 8.91308 4.88802 8.79995 5.17387 8.736C5.85514 8.58843 6.46972 8.30805 6.98901 7.87519C7.14146 7.74238 7.28915 7.60957 7.45113 7.48659C7.82274 7.07832 8.11811 6.60119 8.31821 6.06995C8.50877 5.56822 8.63741 5.03205 8.63741 4.45654C8.63741 4.37784 8.59453 4.30897 8.58976 4.23027C8.55641 3.60557 8.40396 3.02514 8.1467 2.49389C7.69887 1.56914 6.97948 0.816541 6.06476 0.398432C5.98377 0.354162 5.85991 0.354162 5.77891 0.304973C5.51212 0.206595 5.22151 0.172162 4.93566 0.127892C4.72604 0.0983784 4.53547 0 4.31632 0C4.07811 0 3.87325 0.103297 3.63981 0.142649C3.31108 0.196757 2.96807 0.216432 2.66316 0.344324C2.65363 0.349243 2.63934 0.349243 2.62981 0.354162C1.69127 0.767351 0.957594 1.53962 0.500236 2.47422C0.233443 3.02022 0.0714623 3.61049 0.0381132 4.25486" transform="translate(58.122643 31.717186)" id="Fill-13" fill="#FFFFFE" fill-rule="evenodd" stroke="none" />
      </g>
      <g id="Text" transform="translate(146.62193 10.958376)">
        <path d="M3.65887 32.6567C3.65887 32.6567 0 28.1215 0 22.0663L0 16.3898C0 7.30951 7.07953 0 15.8742 0C24.664 0 31.7531 7.30951 31.7531 16.3898L31.7531 26.9852L25.4025 27.7427L25.4025 16.3898C25.4025 10.9741 21.1242 6.55692 15.8742 6.55692C10.6241 6.55692 6.35061 10.9741 6.35061 16.3898L6.35061 22.0663C6.35061 25.7259 8.54689 28.3723 8.54689 28.3723L27.9656 52.1996C27.9656 52.1996 31.7531 56.8676 31.7531 63.0507L31.7531 71.2456C31.7531 80.321 24.664 87.6404 15.8742 87.6404C7.07953 87.6404 0 80.321 0 71.2456L0 58.7565L6.35061 58.0039L6.35061 71.2456C6.35061 76.6663 10.6241 81.0785 15.8742 81.0785C21.1242 81.0785 25.4025 76.6663 25.4025 71.2456L25.4025 63.0507C25.4025 59.391 23.0775 56.4938 23.0775 56.4938L3.65887 32.6567" id="Fill-14" fill="#263179" fill-rule="evenodd" stroke="none" />
        <path d="M0 77.4238L6.35061 77.4238L6.35061 15.8881L0 15.8881L0 77.4238ZM0 0L6.35061 0L6.35061 8.82454L0 8.82454L0 0Z" transform="translate(41.819717 8.952436)" id="Fill-15" fill="#263179" fill-rule="evenodd" stroke="none" />
        <path d="M40.0617 13.6205C40.0617 9.70995 37.0032 6.55692 33.2204 6.55692C29.4329 6.55692 26.3839 9.70995 26.3839 13.6205L26.3839 62.1653L20.0333 62.1653L20.0333 13.6205C20.0333 9.70995 16.9747 6.55692 13.1919 6.55692C9.40443 6.55692 6.35061 9.70995 6.35061 13.6205L6.35061 62.1653L0 62.1653L0 0.629622L4.39731 0.629622L5.49783 5.42065C7.57024 2.14465 10.9909 0 14.7784 0C18.1991 0 21.2481 1.76097 23.4492 4.54016C25.7693 1.76097 29.3138 0 33.2204 0C40.5477 0 46.4124 6.05519 46.4124 13.6205L46.4124 62.1653L40.0617 62.1653L40.0617 13.6205" transform="translate(58.403732 24.21092)" id="Fill-16" fill="#263179" fill-rule="evenodd" stroke="none" />
        <path d="M6.35062 49.1744C6.35062 53.085 9.39967 56.238 13.1872 56.238C16.9699 56.238 20.0285 53.085 20.0285 49.1744L20.0285 13.6205C20.0285 9.70995 16.9699 6.55692 13.1872 6.55692C9.39967 6.55692 6.35062 9.70995 6.35062 13.6205L6.35062 49.1744L6.35062 49.1744ZM0 0.629622L4.39731 0.629622L5.49307 5.42065C7.57024 2.14465 10.9861 0 14.7736 0C21.1242 0 26.3791 6.05519 26.3791 13.6205L26.3791 49.1744C26.3791 56.7397 21.1242 62.7949 14.7736 62.7949C11.4768 62.7949 8.42302 61.1569 6.35061 58.5105L6.35061 81.8361L0 82.5936L0 0.629622L0 0.629622Z" transform="translate(115.116165 24.21092)" id="Fill-18" fill="#263179" fill-rule="evenodd" stroke="none" />
        <path d="M8.79462 85.7466C3.9066 85.7466 0 81.7082 0 76.6663L0 0.757514L6.35061 0L6.35061 76.6663C6.35061 78.0534 7.4559 79.1897 8.79462 79.1897L8.79462 85.7466" transform="translate(151.54765 1.2592468)" id="Fill-20" fill="#263179" fill-rule="evenodd" stroke="none" />
        <path d="M0 77.4238L6.35061 77.4238L6.35061 15.8881L0 15.8881L0 77.4238ZM0 0L6.35061 0L6.35061 8.82454L0 8.82454L0 0Z" transform="translate(169.55138 8.952436)" id="Fill-21" fill="#263179" fill-rule="evenodd" stroke="none" />
        <path d="M24.7926 56.8725C24.7926 50.6944 20.0285 45.7755 14.0447 45.7755L6.35062 45.7755L6.35062 78.5601L14.0447 78.5601C20.0285 78.5601 24.7926 73.6411 24.7926 67.463L24.7926 56.8725L24.7926 56.8725ZM14.0447 39.2185C20.0285 39.2185 24.7926 34.2996 24.7926 28.1215L24.7926 17.654C24.7926 11.4758 20.0285 6.55692 14.0447 6.55692L6.35062 6.55692L6.35062 39.2185L14.0447 39.2185L14.0447 39.2185ZM0 85.117L0 0L14.0447 0C23.4492 0 31.1433 7.94405 31.1433 17.654L31.1433 28.1215C31.1433 34.0488 28.2133 39.3415 23.9399 42.4945C28.2133 45.7755 31.1433 50.9452 31.1433 56.8725L31.1433 67.463C31.1433 77.1729 23.4492 85.117 14.0447 85.117L0 85.117L0 85.117Z" transform="translate(192.65273 1.2494049)" id="Fill-22" fill="#D6692A" fill-rule="evenodd" stroke="none" />
        <path d="M26.3791 0L26.3791 61.5357L21.9818 61.5357L20.886 56.7446C18.8089 60.0207 15.393 62.1653 11.6055 62.1653C5.25486 62.1653 0 56.1101 0 48.5448L0 0L6.35061 0L6.35061 48.5448C6.35061 52.4554 9.4092 55.6084 13.1919 55.6084C16.9794 55.6084 20.0285 52.4554 20.0285 48.5448L20.0285 0L26.3791 0" transform="translate(233.92458 24.830702)" id="Fill-23" fill="#D6692A" fill-rule="evenodd" stroke="none" />
        <path d="M0 0L23.6921 0L23.6921 3.28092L7.32726 54.9788L23.6921 54.9788L23.6921 61.5357L0 61.5357L0 58.2548L16.241 6.55692L0 6.55692L0 0" transform="translate(269.27936 24.830702)" id="Fill-24" fill="#D6692A" fill-rule="evenodd" stroke="none" />
        <path d="M0 0L23.6969 0L23.6969 3.28092L7.32726 54.9788L23.6969 54.9788L23.6969 61.5357L0 61.5357L0 58.2548L16.2458 6.55692L0 6.55692L0 0" transform="translate(300.8037 24.830702)" id="Fill-25" fill="#D6692A" fill-rule="evenodd" stroke="none" />
      </g>
    </g>
  </g>
</svg>